<svg width="57" height="57" viewBox="0 0 57 57" fill="none" xmlns="http://www.w3.org/2000/svg">
<path d="M16.625 42.75C19.3654 40.9907 23.0192 40.1111 24.8462 38.3519C26.6731 36.5926 21.1923 36.5926 21.1923 27.7963C21.1923 19 28.5 19 28.5 19C28.5 19 35.8077 19 35.8077 27.7963C35.8077 36.5926 30.3269 36.5926 32.1538 38.3519C33.9808 40.1111 37.6346 40.9907 40.375 42.75" stroke="black" stroke-width="2" stroke-linecap="round"/>
<path fill-rule="evenodd" clip-rule="evenodd" d="M28.5 49.875C40.3051 49.875 49.875 40.3051 49.875 28.5C49.875 16.6949 40.3051 7.125 28.5 7.125C16.6949 7.125 7.125 16.6949 7.125 28.5C7.125 40.3051 16.6949 49.875 28.5 49.875Z" stroke="black" stroke-width="2"/>
</svg>
