<svg width="31" height="28" viewBox="0 0 31 28" fill="none" xmlns="http://www.w3.org/2000/svg">
<g clip-path="url(#clip0_108_4189)">
<path d="M15.2639 9.56547L19.7015 13.5737L19.7227 13.3637C19.7227 11.2578 17.8279 9.54639 15.4964 9.54639L15.2639 9.56547Z" fill="black"/>
<path d="M15.4964 7.00139C19.3846 7.00139 22.5403 9.85167 22.5403 13.3636C22.5403 14.1843 22.3572 14.9669 22.0402 15.6858L26.1609 19.4077C28.2881 17.8044 29.9646 15.7303 31 13.3636C28.5558 7.77762 22.5474 3.82031 15.4965 3.82031C13.5242 3.82031 11.6365 4.1384 9.88257 4.711L12.9255 7.45308C13.7214 7.17317 14.5878 7.00139 15.4964 7.00139Z" fill="black"/>
<path d="M1.40875 3.53398L4.62074 6.43514L5.26176 7.01412C2.93729 8.65556 1.09884 10.8378 0 13.3636C2.43719 18.9495 8.45262 22.9069 15.4965 22.9069C17.6801 22.9069 19.7651 22.5251 21.674 21.8316L22.2727 22.3724L26.3793 26.0879L28.1755 24.4719L3.20493 1.91162L1.40875 3.53398ZM9.19929 10.5642L11.3758 12.5301C11.3124 12.8037 11.2702 13.0773 11.2702 13.3636C11.2702 15.4695 13.165 17.1809 15.4965 17.1809C15.8135 17.1809 16.1164 17.1427 16.4122 17.0854L18.5888 19.0514C17.6519 19.4713 16.6095 19.7258 15.4965 19.7258C11.6083 19.7258 8.45262 16.8755 8.45262 13.3636C8.45262 12.3584 8.7344 11.4167 9.19929 10.5642Z" fill="black"/>
</g>
<defs>
<clipPath id="clip0_108_4189">
<rect width="31" height="28" fill="white"/>
</clipPath>
</defs>
</svg>
