<svg width="31" height="27" viewBox="0 0 31 27" fill="none" xmlns="http://www.w3.org/2000/svg">
<g clip-path="url(#clip0_108_4180)">
<path d="M15.2639 9.22397L19.7015 13.089L19.7227 12.8865C19.7227 10.8559 17.8279 9.20557 15.4964 9.20557L15.2639 9.22397Z" fill="black"/>
<path d="M15.4964 6.75155C19.3846 6.75155 22.5403 9.50003 22.5403 12.8865C22.5403 13.6779 22.3572 14.4325 22.0402 15.1258L26.1609 18.7147C28.2881 17.1687 29.9646 15.1687 31 12.8865C28.5558 7.50005 22.5474 3.68408 15.4965 3.68408C13.5242 3.68408 11.6365 3.99081 9.88257 4.54296L12.9255 7.18711C13.7214 6.91719 14.5878 6.75155 15.4964 6.75155Z" fill="black"/>
<path d="M1.40875 3.40817L4.62074 6.20571L5.26176 6.76401C2.93729 8.34684 1.09884 10.4512 0 12.8867C2.43719 18.2732 8.45262 22.0891 15.4965 22.0891C17.6801 22.0891 19.7651 21.7211 21.674 21.0523L22.2727 21.5738L26.3793 25.1566L28.1755 23.5984L3.20493 1.84375L1.40875 3.40817ZM9.19929 10.1873L11.3758 12.083C11.3124 12.3469 11.2702 12.6106 11.2702 12.8867C11.2702 14.9174 13.165 16.5677 15.4965 16.5677C15.8135 16.5677 16.1164 16.5309 16.4122 16.4757L18.5888 18.3714C17.6519 18.7763 16.6095 19.0217 15.4965 19.0217C11.6083 19.0217 8.45262 16.2732 8.45262 12.8867C8.45262 11.9174 8.7344 11.0094 9.19929 10.1873Z" fill="black"/>
</g>
<defs>
<clipPath id="clip0_108_4180">
<rect width="31" height="27" fill="white"/>
</clipPath>
</defs>
</svg>
