<svg width="68" height="11" viewBox="0 0 68 11" fill="none" xmlns="http://www.w3.org/2000/svg">
<path d="M64.7135 2.34839C65.3887 2.34839 65.968 2.49136 66.4516 2.77729C66.9352 3.06323 67.307 3.4687 67.567 3.9937C67.827 4.5187 67.957 5.14683 67.957 5.87808V6.76401H62.9001C62.9184 7.5187 63.1145 8.09995 63.4886 8.50776C63.8673 8.91558 64.3964 9.11948 65.0762 9.11948C65.5597 9.11948 65.9931 9.07261 66.3763 8.97886C66.7641 8.88042 67.1633 8.73745 67.5738 8.54995V9.89292C67.1952 10.0757 66.8097 10.2093 66.4174 10.2937C66.0251 10.3781 65.5552 10.4203 65.0077 10.4203C64.2641 10.4203 63.6095 10.2726 63.0438 9.9773C62.4827 9.6773 62.0425 9.23198 61.7231 8.64136C61.4084 8.05073 61.251 7.31714 61.251 6.44058C61.251 5.5687 61.3947 4.82808 61.6821 4.2187C61.9695 3.60933 62.3732 3.14526 62.8933 2.82651C63.4133 2.50776 64.0201 2.34839 64.7135 2.34839ZM64.7135 3.59292C64.2071 3.59292 63.7965 3.76167 63.4818 4.09917C63.1716 4.43667 62.9891 4.9312 62.9343 5.58276H66.3832C66.3786 5.1937 66.3147 4.84917 66.1916 4.54917C66.073 4.24917 65.8905 4.01479 65.6441 3.84605C65.4024 3.67729 65.0921 3.59292 64.7135 3.59292Z" fill="black"/>
<path d="M56.8852 2.34839C57.7337 2.34839 58.3724 2.57339 58.8012 3.02339C59.2346 3.47339 59.4513 4.19526 59.4513 5.18901V10.2796H57.8432V5.48433C57.8432 4.8937 57.7314 4.44839 57.5079 4.14839C57.2844 3.84839 56.9445 3.69839 56.4883 3.69839C55.8496 3.69839 55.3889 3.90933 55.106 4.3312C54.8278 4.74839 54.6886 5.35542 54.6886 6.15229V10.2796H53.0805V5.48433C53.0805 5.09058 53.0304 4.76245 52.93 4.49995C52.8342 4.23276 52.6859 4.03354 52.4852 3.90229C52.2845 3.76636 52.0313 3.69839 51.7256 3.69839C51.2831 3.69839 50.9296 3.80151 50.665 4.00776C50.405 4.21401 50.2179 4.5187 50.1039 4.92183C49.9898 5.32026 49.9328 5.81011 49.9328 6.39136V10.2796H48.3247V2.49604H49.577L49.8028 3.5437H49.8917C50.0468 3.27183 50.2384 3.04917 50.4665 2.87573C50.6992 2.69761 50.957 2.56636 51.2398 2.48198C51.5226 2.39292 51.8169 2.34839 52.1225 2.34839C52.6882 2.34839 53.1649 2.45151 53.5527 2.65776C53.9405 2.85933 54.2302 3.1687 54.4218 3.58589H54.5449C54.7821 3.16401 55.1129 2.85229 55.5371 2.65073C55.9614 2.44917 56.4108 2.34839 56.8852 2.34839Z" fill="black"/>
<path d="M43.1652 2.34839C44.1232 2.34839 44.8463 2.56636 45.3344 3.00229C45.8271 3.43823 46.0734 4.11792 46.0734 5.04136V10.2796H44.9307L44.6227 9.17573H44.568C44.3536 9.45698 44.1323 9.68901 43.9042 9.87183C43.6761 10.0546 43.4115 10.1906 43.1105 10.2796C42.8139 10.3734 42.4513 10.4203 42.0224 10.4203C41.5708 10.4203 41.1671 10.3359 40.8112 10.1671C40.4554 9.9937 40.1748 9.7312 39.9696 9.37964C39.7643 9.02808 39.6616 8.58276 39.6616 8.0437C39.6616 7.24214 39.9513 6.6398 40.5307 6.23667C41.1146 5.83355 41.9951 5.61089 43.172 5.5687L44.4859 5.51948V5.11167C44.4859 4.57261 44.3627 4.18823 44.1164 3.95854C43.8746 3.72886 43.5324 3.61401 43.0899 3.61401C42.7113 3.61401 42.344 3.67026 41.9882 3.78276C41.6324 3.89526 41.2857 4.03355 40.9481 4.19761L40.428 3.03042C40.7975 2.82886 41.2172 2.66479 41.6871 2.53823C42.1616 2.41167 42.6543 2.34839 43.1652 2.34839ZM44.479 6.56011L43.5005 6.59526C42.6976 6.62339 42.1342 6.76401 41.8103 7.01714C41.4864 7.27026 41.3245 7.61714 41.3245 8.05776C41.3245 8.44214 41.4362 8.72339 41.6598 8.90151C41.8833 9.07495 42.1775 9.16167 42.5425 9.16167C43.099 9.16167 43.5598 8.99995 43.9248 8.67651C44.2943 8.34839 44.479 7.86792 44.479 7.23511V6.56011Z" fill="black"/>
<path d="M35.2343 2.34839C36.0873 2.34839 36.7511 2.57573 37.2255 3.03042C37.7046 3.48042 37.9441 4.20464 37.9441 5.20308V10.2796H36.336V5.51245C36.336 4.90776 36.2151 4.45542 35.9733 4.15542C35.7315 3.85073 35.3574 3.69839 34.8511 3.69839C34.1166 3.69839 33.6056 3.93042 33.3182 4.39448C33.0354 4.85855 32.894 5.5312 32.894 6.41245V10.2796H31.2859V2.49604H32.5381L32.764 3.55073H32.8529C33.0171 3.27886 33.2202 3.0562 33.4619 2.88276C33.7083 2.70464 33.982 2.57104 34.2831 2.48198C34.5887 2.39292 34.9058 2.34839 35.2343 2.34839Z" fill="black"/>
<path d="M29.0757 2.34839C29.2034 2.34839 29.3426 2.35542 29.4931 2.36948C29.6437 2.38354 29.7737 2.40229 29.8832 2.42573L29.7326 3.97261C29.6368 3.94448 29.5182 3.92339 29.3768 3.90933C29.2399 3.89526 29.1168 3.88823 29.0073 3.88823C28.7199 3.88823 28.4461 3.93745 28.1861 4.03589C27.9261 4.12964 27.6957 4.27495 27.495 4.47183C27.2943 4.66401 27.1369 4.90542 27.0228 5.19604C26.9088 5.48667 26.8517 5.82417 26.8517 6.20854V10.2796H25.2368V2.49604H26.4959L26.7149 3.86714H26.7902C26.9407 3.59058 27.1277 3.33745 27.3513 3.10776C27.5748 2.87808 27.8303 2.69526 28.1177 2.55933C28.4097 2.4187 28.729 2.34839 29.0757 2.34839Z" fill="black"/>
<path d="M20.1798 2.34839C20.855 2.34839 21.4343 2.49136 21.9179 2.77729C22.4015 3.06323 22.7733 3.4687 23.0333 3.9937C23.2933 4.5187 23.4234 5.14683 23.4234 5.87808V6.76401H18.3664C18.3847 7.5187 18.5808 8.09995 18.9549 8.50776C19.3336 8.91558 19.8627 9.11948 20.5425 9.11948C21.026 9.11948 21.4594 9.07261 21.8426 8.97886C22.2304 8.88042 22.6296 8.73745 23.0401 8.54995V9.89292C22.6615 10.0757 22.276 10.2093 21.8837 10.2937C21.4914 10.3781 21.0215 10.4203 20.4741 10.4203C19.7305 10.4203 19.0758 10.2726 18.5101 9.9773C17.949 9.6773 17.5088 9.23198 17.1894 8.64136C16.8747 8.05073 16.7173 7.31714 16.7173 6.44058C16.7173 5.5687 16.861 4.82808 17.1484 4.2187C17.4358 3.60933 17.8395 3.14526 18.3596 2.82651C18.8796 2.50776 19.4864 2.34839 20.1798 2.34839ZM20.1798 3.59292C19.6734 3.59292 19.2629 3.76167 18.9481 4.09917C18.6379 4.43667 18.4554 4.9312 18.4006 5.58276H21.8495C21.8449 5.1937 21.781 4.84917 21.6579 4.54917C21.5393 4.24917 21.3568 4.01479 21.1104 3.84605C20.8687 3.67729 20.5584 3.59292 20.1798 3.59292Z" fill="black"/>
<path d="M15.4239 8.05776C15.4239 8.5687 15.303 8.99995 15.0612 9.35151C14.8194 9.70308 14.4659 9.97026 14.0006 10.1531C13.5398 10.3312 12.9741 10.4203 12.3035 10.4203C11.7743 10.4203 11.3181 10.3804 10.9349 10.3007C10.5563 10.2257 10.1982 10.1085 9.8606 9.94917V8.52183C10.221 8.69526 10.6247 8.84526 11.0718 8.97183C11.5234 9.09839 11.95 9.16167 12.3514 9.16167C12.8806 9.16167 13.2615 9.0773 13.4942 8.90855C13.7268 8.73511 13.8432 8.50542 13.8432 8.21948C13.8432 8.05073 13.7953 7.90073 13.6995 7.76948C13.6082 7.63355 13.4349 7.49526 13.1794 7.35464C12.9285 7.20933 12.559 7.03589 12.0709 6.83433C11.5919 6.63745 11.1881 6.44058 10.8597 6.2437C10.5312 6.04683 10.2826 5.81011 10.1138 5.53355C9.94499 5.2523 9.8606 4.8937 9.8606 4.45776C9.8606 3.7687 10.1252 3.24604 10.6544 2.88979C11.1881 2.52886 11.8929 2.34839 12.7688 2.34839C13.2342 2.34839 13.6721 2.39761 14.0827 2.49604C14.4978 2.58979 14.9038 2.72808 15.3007 2.91089L14.7943 4.15542C14.4522 4.00073 14.1078 3.87417 13.7611 3.77573C13.4189 3.67261 13.0699 3.62104 12.7141 3.62104C12.299 3.62104 11.9819 3.68667 11.7629 3.81792C11.5485 3.94917 11.4413 4.13667 11.4413 4.38042C11.4413 4.56323 11.4938 4.71792 11.5987 4.84448C11.7036 4.97105 11.8838 5.09761 12.1393 5.22417C12.3993 5.35073 12.7597 5.50776 13.2205 5.69526C13.6721 5.87339 14.0622 6.06089 14.3906 6.25776C14.7236 6.44995 14.9791 6.68667 15.157 6.96792C15.3349 7.24917 15.4239 7.61245 15.4239 8.05776Z" fill="black"/>
<path d="M7.93779 0V6.65156C7.93779 7.36875 7.78953 8.01094 7.493 8.57812C7.20104 9.14531 6.75853 9.59531 6.16547 9.92812C5.57242 10.2562 4.82654 10.4203 3.92784 10.4203C2.64593 10.4203 1.66967 10.0758 0.999067 9.38672C0.333022 8.69297 0 7.77187 0 6.62344V0H1.6423V6.47578C1.6423 7.33359 1.83847 7.96641 2.23079 8.37422C2.62312 8.78203 3.20933 8.98594 3.98942 8.98594C4.52773 8.98594 4.96568 8.88984 5.30327 8.69766C5.64541 8.50078 5.89632 8.21484 6.05599 7.83984C6.22022 7.46016 6.30233 7.00312 6.30233 6.46875V0H7.93779Z" fill="black"/>
</svg>
